<svg xmlns="http://www.w3.org/2000/svg" xmlns:xlink="http://www.w3.org/1999/xlink" width="500" zoomAndPan="magnify" viewBox="0 0 375 374.999991" height="500" preserveAspectRatio="xMidYMid meet" version="1.0"><defs><clipPath id="0e05e458fe"><path d="M 106.726562 216.402344 L 170.828125 216.402344 L 170.828125 265.667969 L 106.726562 265.667969 Z M 106.726562 216.402344 " clip-rule="nonzero"/></clipPath><clipPath id="fa9707b15f"><path d="M 15.941406 253.132812 C 15.675781 256.546875 41.023438 261.589844 41.527344 264.820312 C 42.875 273.46875 48.425781 282.152344 55.542969 287.65625 C 61.617188 292.347656 68.675781 295.984375 77.070312 296.574219 C 85.152344 297.144531 98.253906 295.257812 110.4375 283.6875 C 128.472656 266.554688 161.191406 269.652344 162.210938 256.582031 C 162.292969 255.53125 171.878906 232.300781 172.152344 231.300781 C 191.691406 159.746094 101.597656 189.667969 80.867188 188.210938 C 59.035156 186.671875 17.5625 232.378906 15.941406 253.132812 Z M 15.941406 253.132812 " clip-rule="nonzero"/></clipPath><clipPath id="718cd7d561"><path d="M 106.15625 215.640625 L 171.398438 215.640625 L 171.398438 266.238281 L 106.15625 266.238281 Z M 106.15625 215.640625 " clip-rule="nonzero"/></clipPath><clipPath id="fea794e89c"><path d="M 15.941406 253.132812 C 15.675781 256.546875 41.023438 261.589844 41.527344 264.820312 C 42.875 273.46875 48.425781 282.152344 55.542969 287.65625 C 61.617188 292.347656 68.675781 295.984375 77.070312 296.574219 C 85.152344 297.144531 98.253906 295.257812 110.4375 283.6875 C 128.472656 266.554688 161.191406 269.652344 162.210938 256.582031 C 162.292969 255.53125 171.878906 232.300781 172.152344 231.300781 C 191.691406 159.746094 101.597656 189.667969 80.867188 188.210938 C 59.035156 186.671875 17.5625 232.378906 15.941406 253.132812 Z M 15.941406 253.132812 " clip-rule="nonzero"/></clipPath><clipPath id="242e1ff190"><path d="M 39.582031 221.15625 L 122.515625 221.15625 L 122.515625 296.671875 L 39.582031 296.671875 Z M 39.582031 221.15625 " clip-rule="nonzero"/></clipPath><clipPath id="e68d474f6f"><path d="M 15.941406 253.132812 C 15.675781 256.546875 41.023438 261.589844 41.527344 264.820312 C 42.875 273.46875 48.425781 282.152344 55.542969 287.65625 C 61.617188 292.347656 68.675781 295.984375 77.070312 296.574219 C 85.152344 297.144531 98.253906 295.257812 110.4375 283.6875 C 128.472656 266.554688 161.191406 269.652344 162.210938 256.582031 C 162.292969 255.53125 171.878906 232.300781 172.152344 231.300781 C 191.691406 159.746094 101.597656 189.667969 80.867188 188.210938 C 59.035156 186.671875 17.5625 232.378906 15.941406 253.132812 Z M 15.941406 253.132812 " clip-rule="nonzero"/></clipPath><clipPath id="b61dda77fe"><path d="M 39.011719 220.398438 L 123.085938 220.398438 L 123.085938 296.671875 L 39.011719 296.671875 Z M 39.011719 220.398438 " clip-rule="nonzero"/></clipPath><clipPath id="490a5b03be"><path d="M 15.941406 253.132812 C 15.675781 256.546875 41.023438 261.589844 41.527344 264.820312 C 42.875 273.46875 48.425781 282.152344 55.542969 287.65625 C 61.617188 292.347656 68.675781 295.984375 77.070312 296.574219 C 85.152344 297.144531 98.253906 295.257812 110.4375 283.6875 C 128.472656 266.554688 161.191406 269.652344 162.210938 256.582031 C 162.292969 255.53125 171.878906 232.300781 172.152344 231.300781 C 191.691406 159.746094 101.597656 189.667969 80.867188 188.210938 C 59.035156 186.671875 17.5625 232.378906 15.941406 253.132812 Z M 15.941406 253.132812 " clip-rule="nonzero"/></clipPath><clipPath id="772cd63ea0"><path d="M 66.59375 285.257812 L 97.789062 285.257812 L 97.789062 296.671875 L 66.59375 296.671875 Z M 66.59375 285.257812 " clip-rule="nonzero"/></clipPath><clipPath id="771349d383"><path d="M 15.941406 253.132812 C 15.675781 256.546875 41.023438 261.589844 41.527344 264.820312 C 42.875 273.46875 48.425781 282.152344 55.542969 287.65625 C 61.617188 292.347656 68.675781 295.984375 77.070312 296.574219 C 85.152344 297.144531 98.253906 295.257812 110.4375 283.6875 C 128.472656 266.554688 161.191406 269.652344 162.210938 256.582031 C 162.292969 255.53125 171.878906 232.300781 172.152344 231.300781 C 191.691406 159.746094 101.597656 189.667969 80.867188 188.210938 C 59.035156 186.671875 17.5625 232.378906 15.941406 253.132812 Z M 15.941406 253.132812 " clip-rule="nonzero"/></clipPath><clipPath id="81cd19871f"><path d="M 79.148438 246.074219 L 117.570312 246.074219 L 117.570312 278.792969 L 79.148438 278.792969 Z M 79.148438 246.074219 " clip-rule="nonzero"/></clipPath><clipPath id="379239baf8"><path d="M 15.941406 253.132812 C 15.675781 256.546875 41.023438 261.589844 41.527344 264.820312 C 42.875 273.46875 48.425781 282.152344 55.542969 287.65625 C 61.617188 292.347656 68.675781 295.984375 77.070312 296.574219 C 85.152344 297.144531 98.253906 295.257812 110.4375 283.6875 C 128.472656 266.554688 161.191406 269.652344 162.210938 256.582031 C 162.292969 255.53125 171.878906 232.300781 172.152344 231.300781 C 191.691406 159.746094 101.597656 189.667969 80.867188 188.210938 C 59.035156 186.671875 17.5625 232.378906 15.941406 253.132812 Z M 15.941406 253.132812 " clip-rule="nonzero"/></clipPath><clipPath id="e70e140fd1"><path d="M 41.292969 253.113281 L 106 253.113281 L 106 285 L 41.292969 285 Z M 41.292969 253.113281 " clip-rule="nonzero"/></clipPath><clipPath id="569c242123"><path d="M 15.941406 253.132812 C 15.675781 256.546875 41.023438 261.589844 41.527344 264.820312 C 42.875 273.46875 48.425781 282.152344 55.542969 287.65625 C 61.617188 292.347656 68.675781 295.984375 77.070312 296.574219 C 85.152344 297.144531 98.253906 295.257812 110.4375 283.6875 C 128.472656 266.554688 161.191406 269.652344 162.210938 256.582031 C 162.292969 255.53125 171.878906 232.300781 172.152344 231.300781 C 191.691406 159.746094 101.597656 189.667969 80.867188 188.210938 C 59.035156 186.671875 17.5625 232.378906 15.941406 253.132812 Z M 15.941406 253.132812 " clip-rule="nonzero"/></clipPath><clipPath id="d1e1d12263"><path d="M 40.535156 252.351562 L 106.726562 252.351562 L 106.726562 285.640625 L 40.535156 285.640625 Z M 40.535156 252.351562 " clip-rule="nonzero"/></clipPath><clipPath id="34f3028054"><path d="M 15.941406 253.132812 C 15.675781 256.546875 41.023438 261.589844 41.527344 264.820312 C 42.875 273.46875 48.425781 282.152344 55.542969 287.65625 C 61.617188 292.347656 68.675781 295.984375 77.070312 296.574219 C 85.152344 297.144531 98.253906 295.257812 110.4375 283.6875 C 128.472656 266.554688 161.191406 269.652344 162.210938 256.582031 C 162.292969 255.53125 171.878906 232.300781 172.152344 231.300781 C 191.691406 159.746094 101.597656 189.667969 80.867188 188.210938 C 59.035156 186.671875 17.5625 232.378906 15.941406 253.132812 Z M 15.941406 253.132812 " clip-rule="nonzero"/></clipPath><clipPath id="dc0d384801"><path d="M 71.15625 187.109375 L 96.835938 187.109375 L 96.835938 215 L 71.15625 215 Z M 71.15625 187.109375 " clip-rule="nonzero"/></clipPath><clipPath id="ea5c0e5f5b"><path d="M 15.941406 253.132812 C 15.675781 256.546875 41.023438 261.589844 41.527344 264.820312 C 42.875 273.46875 48.425781 282.152344 55.542969 287.65625 C 61.617188 292.347656 68.675781 295.984375 77.070312 296.574219 C 85.152344 297.144531 98.253906 295.257812 110.4375 283.6875 C 128.472656 266.554688 161.191406 269.652344 162.210938 256.582031 C 162.292969 255.53125 171.878906 232.300781 172.152344 231.300781 C 191.691406 159.746094 101.597656 189.667969 80.867188 188.210938 C 59.035156 186.671875 17.5625 232.378906 15.941406 253.132812 Z M 15.941406 253.132812 " clip-rule="nonzero"/></clipPath><clipPath id="8885f05924"><path d="M 75.152344 195.289062 L 95.125 195.289062 L 95.125 224.390625 L 75.152344 224.390625 Z M 75.152344 195.289062 " clip-rule="nonzero"/></clipPath><clipPath id="c89638fe1f"><path d="M 15.941406 253.132812 C 15.675781 256.546875 41.023438 261.589844 41.527344 264.820312 C 42.875 273.46875 48.425781 282.152344 55.542969 287.65625 C 61.617188 292.347656 68.675781 295.984375 77.070312 296.574219 C 85.152344 297.144531 98.253906 295.257812 110.4375 283.6875 C 128.472656 266.554688 161.191406 269.652344 162.210938 256.582031 C 162.292969 255.53125 171.878906 232.300781 172.152344 231.300781 C 191.691406 159.746094 101.597656 189.667969 80.867188 188.210938 C 59.035156 186.671875 17.5625 232.378906 15.941406 253.132812 Z M 15.941406 253.132812 " clip-rule="nonzero"/></clipPath><clipPath id="a053a28c1b"><path d="M 74.390625 194.527344 L 95.695312 194.527344 L 95.695312 224.960938 L 74.390625 224.960938 Z M 74.390625 194.527344 " clip-rule="nonzero"/></clipPath><clipPath id="accf77c7bf"><path d="M 15.941406 253.132812 C 15.675781 256.546875 41.023438 261.589844 41.527344 264.820312 C 42.875 273.46875 48.425781 282.152344 55.542969 287.65625 C 61.617188 292.347656 68.675781 295.984375 77.070312 296.574219 C 85.152344 297.144531 98.253906 295.257812 110.4375 283.6875 C 128.472656 266.554688 161.191406 269.652344 162.210938 256.582031 C 162.292969 255.53125 171.878906 232.300781 172.152344 231.300781 C 191.691406 159.746094 101.597656 189.667969 80.867188 188.210938 C 59.035156 186.671875 17.5625 232.378906 15.941406 253.132812 Z M 15.941406 253.132812 " clip-rule="nonzero"/></clipPath><clipPath id="9a277495c0"><path d="M 82.761719 210 L 89.417969 210 L 89.417969 214.691406 L 82.761719 214.691406 Z M 82.761719 210 " clip-rule="nonzero"/></clipPath><clipPath id="a901f78fcf"><path d="M 15.941406 253.132812 C 15.675781 256.546875 41.023438 261.589844 41.527344 264.820312 C 42.875 273.46875 48.425781 282.152344 55.542969 287.65625 C 61.617188 292.347656 68.675781 295.984375 77.070312 296.574219 C 85.152344 297.144531 98.253906 295.257812 110.4375 283.6875 C 128.472656 266.554688 161.191406 269.652344 162.210938 256.582031 C 162.292969 255.53125 171.878906 232.300781 172.152344 231.300781 C 191.691406 159.746094 101.597656 189.667969 80.867188 188.210938 C 59.035156 186.671875 17.5625 232.378906 15.941406 253.132812 Z M 15.941406 253.132812 " clip-rule="nonzero"/></clipPath></defs><path fill="#a8a8a8" d="M 343.886719 213.046875 C 338.261719 146.253906 374.996094 116.597656 357.453125 79.75 C 346.195312 56.113281 322.542969 43.632812 308.117188 35.777344 C 245.746094 1.816406 160.785156 10.855469 104.316406 42.523438 C 48.574219 73.78125 -0.00390625 147.792969 20.359375 228.203125 C 40.800781 308.929688 120.359375 350.433594 180.535156 359.234375 C 276.09375 373.207031 356.375 309.636719 360.769531 287.570312 C 362.125 280.765625 361.769531 274.738281 361.769531 274.738281 C 360.074219 258.808594 346.945312 249.347656 343.886719 213.046875 " fill-opacity="1" fill-rule="nonzero"/><path fill="#000000" d="M 259.132812 49.101562 C 263.125 55.914062 272.496094 57.253906 274.597656 57.488281 C 283.140625 58.445312 289.441406 54.339844 291.148438 53.144531 C 294.105469 54.960938 301.273438 58.789062 310.628906 58.070312 C 318.023438 57.507812 330.488281 53.8125 332.902344 45.164062 C 335.789062 34.8125 322.765625 22.789062 311.589844 18.542969 C 302.214844 14.984375 287.929688 14.527344 281.089844 21.734375 C 278.578125 24.382812 278.1875 26.886719 275.222656 27.75 C 269.894531 29.304688 265.980469 22.75 259.078125 23.082031 C 254.9375 23.285156 251.707031 25.863281 249.710938 27.871094 C 244.617188 29.554688 241.492188 32.933594 241.875 35.652344 C 242.269531 38.488281 246.414062 40.207031 247.222656 40.542969 C 251.417969 42.28125 253.644531 40.527344 256.128906 42.347656 C 258.332031 43.964844 257.4375 46.210938 259.132812 49.101562 " fill-opacity="1" fill-rule="nonzero"/><path fill="#000000" d="M 333.949219 128.960938 C 332.816406 101.199219 316.8125 90.964844 316.8125 90.964844 L 283.824219 99.191406 L 270.214844 128.960938 L 333.949219 128.960938 " fill-opacity="1" fill-rule="nonzero"/><path fill="#ffffff" d="M 268.191406 54.453125 C 268.191406 54.453125 259.386719 53.039062 253.292969 64.488281 C 247.195312 75.941406 241.875 88.210938 236.074219 83.152344 C 230.277344 78.097656 223.554688 67.015625 220.875 63.894531 C 218.195312 60.773438 214.628906 59.359375 215.597656 62.035156 C 216.558594 64.714844 216.636719 65.308594 216.636719 65.308594 C 216.636719 65.308594 207.378906 64.75 205.261719 64.972656 C 203.140625 65.195312 202.671875 70.003906 208.359375 71.003906 C 214.046875 72.003906 218.769531 70.128906 219.773438 72.46875 C 220.777344 74.8125 229.917969 99.324219 244.527344 95.085938 C 259.140625 90.847656 267.785156 68.070312 267.785156 68.070312 L 268.191406 54.453125 " fill-opacity="1" fill-rule="nonzero"/><path fill="#000000" d="M 216.476562 70.597656 C 218.347656 70.597656 219.769531 70.855469 220.351562 72.222656 C 220.402344 72.34375 220.480469 72.523438 220.574219 72.753906 C 224.480469 82.3125 232.765625 97.84375 244.355469 94.480469 C 258.023438 90.511719 266.527344 69.550781 267.160156 67.941406 L 267.550781 55.023438 C 265.59375 54.9375 258.851562 55.382812 253.847656 64.785156 C 253.160156 66.070312 252.484375 67.367188 251.820312 68.648438 C 247.507812 76.929688 243.785156 84.082031 239.578125 84.878906 C 238.226562 85.132812 236.910156 84.710938 235.664062 83.625 C 231.644531 80.121094 227.210938 73.800781 223.972656 69.183594 C 222.5 67.082031 221.226562 65.269531 220.398438 64.300781 C 218.5 62.085938 216.554688 61.191406 216.0625 61.246094 C 216.058594 61.324219 216.070312 61.5 216.1875 61.820312 C 217.128906 64.433594 217.246094 65.117188 217.261719 65.226562 L 217.355469 65.980469 L 216.601562 65.933594 C 216.507812 65.929688 207.367188 65.382812 205.328125 65.597656 C 204.824219 65.648438 204.453125 66.191406 204.425781 66.914062 C 204.382812 68.179688 205.414062 69.847656 208.46875 70.382812 C 210.773438 70.789062 212.882812 70.710938 214.746094 70.640625 C 215.355469 70.617188 215.933594 70.597656 216.476562 70.597656 Z M 241.167969 96.203125 C 233.152344 96.203125 225.53125 88.21875 219.410156 73.230469 C 219.320312 73.007812 219.246094 72.832031 219.199219 72.714844 C 218.800781 71.792969 217.339844 71.800781 214.789062 71.898438 C 212.964844 71.964844 210.6875 72.050781 208.25 71.621094 C 204.402344 70.945312 203.109375 68.640625 203.171875 66.871094 C 203.21875 65.503906 204.050781 64.464844 205.195312 64.347656 C 206.976562 64.160156 213.441406 64.496094 215.8125 64.628906 C 215.667969 64.148438 215.421875 63.398438 215.007812 62.246094 C 214.523438 60.914062 215.039062 60.371094 215.386719 60.167969 C 216.6875 59.410156 219.445312 61.257812 221.351562 63.484375 C 222.222656 64.496094 223.507812 66.332031 225 68.460938 C 228.203125 73.023438 232.585938 79.277344 236.488281 82.675781 C 237.441406 83.511719 238.378906 83.828125 239.34375 83.644531 C 242.953125 82.960938 246.71875 75.726562 250.703125 68.066406 C 251.375 66.78125 252.050781 65.480469 252.738281 64.195312 C 258.972656 52.480469 267.917969 53.769531 268.292969 53.828125 L 268.839844 53.917969 L 268.410156 68.195312 L 268.371094 68.292969 C 268.015625 69.238281 259.445312 91.40625 244.703125 95.6875 C 243.519531 96.03125 242.339844 96.203125 241.167969 96.203125 " fill-opacity="1" fill-rule="nonzero"/><path fill="#000000" d="M 308.859375 97.738281 C 308.859375 97.738281 290.628906 110.113281 265.191406 106.46875 C 265.191406 106.46875 268.632812 99.828125 274.507812 97.445312 C 280.386719 95.0625 308.859375 97.738281 308.859375 97.738281 " fill-opacity="1" fill-rule="nonzero"/><path fill="#333333" d="M 265.320312 53.5 L 282.660156 44.835938 C 287.058594 42.640625 292.382812 43.636719 295.679688 47.277344 C 303.246094 55.628906 316.28125 71.773438 322.832031 90.15625 C 322.832031 90.15625 311.050781 105.1875 295.46875 104.140625 C 279.886719 103.09375 270.703125 102.09375 265.191406 106.46875 C 265.191406 106.46875 260.605469 83.421875 259.679688 63.070312 C 259.5 59.046875 261.714844 55.296875 265.320312 53.5 " fill-opacity="1" fill-rule="nonzero"/><path fill="#000000" d="M 292.9375 100.585938 C 292.617188 100.585938 292.34375 100.339844 292.3125 100.015625 C 291.730469 93.761719 289.777344 89.316406 286.511719 86.800781 C 284.023438 84.886719 281.382812 84.507812 278.589844 84.105469 C 275.621094 83.679688 272.550781 83.238281 269.417969 80.964844 C 266.128906 78.578125 263.789062 74.894531 262.457031 70.011719 C 262.363281 69.671875 262.5625 69.328125 262.898438 69.238281 C 263.234375 69.144531 263.578125 69.34375 263.667969 69.679688 C 264.921875 74.28125 267.105469 77.734375 270.15625 79.949219 C 273.035156 82.039062 275.949219 82.457031 278.765625 82.863281 C 281.597656 83.269531 284.527344 83.691406 287.28125 85.808594 C 290.832031 88.539062 292.945312 93.28125 293.5625 99.898438 C 293.597656 100.242188 293.34375 100.550781 293 100.582031 C 292.976562 100.585938 292.957031 100.585938 292.9375 100.585938 " fill-opacity="1" fill-rule="nonzero"/><path fill="#ffffff" d="M 265.359375 39.011719 C 265.386719 38.980469 267.164062 36.953125 266.191406 35.464844 C 265.210938 33.96875 263.269531 35.949219 263.269531 35.949219 C 263.269531 35.949219 261.625 33.105469 257.875 33.207031 C 257.875 33.207031 256.273438 36.84375 252.183594 36.828125 C 252.183594 36.828125 253.117188 38.957031 254.496094 41.320312 L 254.941406 43.867188 C 255.007812 44.25 255.4375 44.449219 255.773438 44.25 C 256.027344 44.101562 256.347656 44.167969 256.527344 44.402344 C 257.539062 45.730469 258.636719 46.847656 259.714844 47.328125 C 261.21875 48.007812 262.570312 47.3125 263.582031 46.015625 C 265.976562 48.914062 269.507812 53.84375 267.859375 55.976562 C 267.859375 55.976562 273.242188 57.535156 278.5625 50.21875 L 265.359375 39.011719 " fill-opacity="1" fill-rule="nonzero"/><path fill="#000000" d="M 268.796875 55.484375 C 270.335938 55.585938 273.953125 55.199219 277.703125 50.316406 L 264.464844 39.074219 L 264.890625 38.597656 C 264.921875 38.558594 266.355469 36.863281 265.660156 35.808594 C 265.519531 35.585938 265.386719 35.546875 265.285156 35.535156 C 264.796875 35.488281 264 36.101562 263.71875 36.386719 L 263.140625 36.980469 L 262.726562 36.261719 C 262.667969 36.167969 261.3125 33.921875 258.257812 33.832031 C 257.746094 34.742188 256.1875 37.003906 253.136719 37.394531 C 253.53125 38.222656 254.207031 39.574219 255.039062 41.003906 L 255.097656 41.101562 L 255.542969 43.660156 C 256.054688 43.414062 256.675781 43.5625 257.023438 44.023438 C 258.109375 45.445312 259.101562 46.367188 259.96875 46.753906 C 261.339844 47.367188 262.421875 46.480469 263.089844 45.625 L 263.574219 45.007812 L 264.070312 45.609375 C 267.792969 50.128906 269.378906 53.441406 268.796875 55.484375 Z M 269.183594 56.75 C 268.304688 56.75 267.757812 56.601562 267.6875 56.582031 L 266.796875 56.324219 L 267.363281 55.589844 C 268.324219 54.351562 266.90625 51.15625 263.5625 46.984375 C 262.339844 48.199219 260.875 48.539062 259.457031 47.902344 C 258.402344 47.429688 257.257812 46.390625 256.050781 44.816406 C 255.726562 44.988281 255.332031 45 254.996094 44.847656 C 254.640625 44.683594 254.390625 44.355469 254.324219 43.972656 L 253.894531 41.539062 C 252.542969 39.210938 251.644531 37.164062 251.605469 37.078125 L 251.21875 36.191406 L 252.183594 36.195312 C 252.195312 36.195312 252.203125 36.195312 252.214844 36.195312 C 255.828125 36.195312 257.285156 32.984375 257.300781 32.953125 L 257.460938 32.585938 L 257.859375 32.574219 C 260.84375 32.503906 262.621094 34.113281 263.378906 35.027344 C 263.875 34.652344 264.640625 34.210938 265.402344 34.285156 C 265.777344 34.320312 266.304688 34.496094 266.714844 35.121094 C 267.617188 36.496094 266.777344 38.109375 266.222656 38.917969 L 279.414062 50.117188 L 279.070312 50.589844 C 275.195312 55.917969 271.261719 56.75 269.183594 56.75 " fill-opacity="1" fill-rule="nonzero"/><path fill="#000000" d="M 263.582031 46.640625 C 263.441406 46.640625 263.300781 46.59375 263.183594 46.492188 C 262.914062 46.269531 262.878906 45.871094 263.105469 45.609375 C 263.703125 44.898438 264.238281 43.355469 264.394531 42.816406 C 264.492188 42.484375 264.84375 42.292969 265.175781 42.390625 C 265.507812 42.488281 265.699219 42.835938 265.601562 43.171875 C 265.574219 43.261719 264.953125 45.363281 264.066406 46.417969 C 263.941406 46.566406 263.761719 46.640625 263.582031 46.640625 " fill-opacity="1" fill-rule="nonzero"/><path fill="#575757" d="M 216.457031 360.835938 L 23.867188 335.257812 C 22.351562 335.0625 21.5 333.78125 21.519531 332.5 C 21.53125 331.617188 21.601562 325.394531 21.601562 325.394531 L 123.101562 266.644531 C 128.226562 263.6875 134.851562 262.546875 140.699219 263.304688 L 331.554688 288.207031 C 332.703125 288.359375 333.691406 289.113281 334.144531 290.191406 L 334.453125 290.917969 C 334.453125 290.917969 334.289062 296.109375 334.355469 297.320312 C 334.40625 298.269531 333.984375 299.246094 333.003906 299.816406 L 233.363281 357.445312 C 228.242188 360.402344 222.304688 361.59375 216.457031 360.835938 " fill-opacity="1" fill-rule="nonzero"/><path fill="#ffffff" d="M 216.457031 353.910156 L 23.851562 328.742188 C 21.292969 328.410156 20.621094 324.976562 22.859375 323.683594 L 121.964844 266.425781 C 127.085938 263.46875 133.019531 262.277344 138.871094 263.035156 L 331.476562 288.203125 C 334.035156 288.535156 334.707031 291.964844 332.46875 293.257812 L 233.359375 350.519531 C 228.242188 353.476562 222.308594 354.667969 216.457031 353.910156 " fill-opacity="1" fill-rule="nonzero"/><path fill="#000000" d="M 216.539062 353.285156 C 222.214844 354.023438 228.078125 352.84375 233.050781 349.972656 L 332.152344 292.714844 C 333.105469 292.164062 333.296875 291.199219 333.152344 290.484375 C 333.011719 289.773438 332.472656 288.96875 331.394531 288.828125 L 138.789062 263.660156 C 133.113281 262.921875 127.25 264.097656 122.28125 266.972656 L 23.175781 324.230469 C 22.21875 324.78125 22.03125 325.746094 22.175781 326.460938 C 22.316406 327.167969 22.851562 327.976562 23.929688 328.117188 Z M 219.863281 354.757812 C 218.699219 354.757812 217.535156 354.683594 216.375 354.53125 L 23.769531 329.363281 C 22.339844 329.179688 21.230469 328.136719 20.941406 326.707031 C 20.65625 325.269531 21.285156 323.871094 22.546875 323.140625 L 121.652344 265.882812 C 126.859375 262.875 133.003906 261.640625 138.953125 262.414062 L 331.558594 287.582031 C 332.988281 287.769531 334.097656 288.808594 334.382812 290.234375 C 334.671875 291.675781 334.042969 293.074219 332.78125 293.804688 L 233.675781 351.0625 C 229.480469 353.484375 224.679688 354.757812 219.863281 354.757812 " fill-opacity="1" fill-rule="nonzero"/><path fill="#575757" d="M 254.167969 322.125 L 87.152344 300.144531 C 84.84375 299.84375 84.234375 296.742188 86.257812 295.574219 L 125.527344 273.117188 C 130.152344 270.445312 135.511719 269.371094 140.796875 270.054688 L 307.808594 292.039062 C 310.117188 292.339844 310.726562 295.433594 308.703125 296.601562 L 269.433594 319.0625 C 264.808594 321.734375 259.449219 322.808594 254.167969 322.125 " fill-opacity="1" fill-rule="nonzero"/><path fill="#575757" d="M 156.15625 335.027344 L 109.671875 328.953125 C 109.054688 328.875 108.894531 328.046875 109.433594 327.734375 L 131.894531 315.308594 C 133.128906 314.59375 134.5625 314.308594 135.976562 314.488281 L 182.460938 320.566406 C 183.074219 320.644531 183.238281 321.472656 182.699219 321.785156 L 160.238281 334.210938 C 159 334.925781 157.566406 335.210938 156.15625 335.027344 " fill-opacity="1" fill-rule="nonzero"/><path fill="#000000" d="M 281.730469 296.617188 C 281.703125 296.617188 281.675781 296.617188 281.648438 296.613281 L 235.308594 290.511719 C 234.960938 290.46875 234.71875 290.152344 234.765625 289.808594 C 234.8125 289.464844 235.125 289.222656 235.46875 289.265625 L 281.8125 295.367188 C 282.15625 295.414062 282.398438 295.726562 282.355469 296.074219 C 282.3125 296.386719 282.042969 296.617188 281.730469 296.617188 " fill-opacity="1" fill-rule="nonzero"/><path fill="#000000" d="M 195.003906 285.203125 C 194.980469 285.203125 194.949219 285.203125 194.925781 285.199219 L 142.332031 278.277344 C 141.988281 278.230469 141.742188 277.914062 141.789062 277.570312 C 141.835938 277.226562 142.152344 276.984375 142.492188 277.027344 L 195.085938 283.953125 C 195.433594 283.996094 195.671875 284.3125 195.628906 284.65625 C 195.585938 284.972656 195.316406 285.203125 195.003906 285.203125 " fill-opacity="1" fill-rule="nonzero"/><path fill="#000000" d="M 257.90625 303.691406 C 257.882812 303.691406 257.851562 303.6875 257.824219 303.683594 L 230.265625 300.042969 C 229.921875 299.996094 229.675781 299.683594 229.722656 299.339844 C 229.769531 298.992188 230.085938 298.753906 230.429688 298.796875 L 257.988281 302.4375 C 258.335938 302.484375 258.574219 302.800781 258.53125 303.144531 C 258.488281 303.460938 258.21875 303.691406 257.90625 303.691406 " fill-opacity="1" fill-rule="nonzero"/><path fill="#000000" d="M 176.214844 292.898438 C 176.1875 292.898438 176.160156 292.894531 176.132812 292.890625 L 124.980469 286.132812 C 124.636719 286.085938 124.394531 285.773438 124.4375 285.429688 C 124.484375 285.082031 124.800781 284.84375 125.144531 284.886719 L 176.296875 291.644531 C 176.640625 291.691406 176.882812 292.007812 176.839844 292.351562 C 176.796875 292.667969 176.527344 292.898438 176.214844 292.898438 " fill-opacity="1" fill-rule="nonzero"/><path fill="#000000" d="M 162.363281 301.976562 C 162.339844 301.976562 162.3125 301.976562 162.285156 301.972656 L 142 299.480469 C 141.65625 299.4375 141.414062 299.125 141.457031 298.777344 C 141.496094 298.433594 141.8125 298.1875 142.15625 298.230469 L 162.441406 300.726562 C 162.785156 300.769531 163.03125 301.082031 162.984375 301.425781 C 162.949219 301.746094 162.675781 301.976562 162.363281 301.976562 " fill-opacity="1" fill-rule="nonzero"/><path fill="#575757" d="M 138.988281 259.4375 C 134.257812 258.828125 130.710938 254.753906 130.710938 249.925781 L 130.09375 118.140625 L 132.414062 113.0625 C 132.414062 113.0625 136.632812 110.214844 138.84375 108.945312 C 140.175781 108.179688 141.757812 107.820312 143.410156 108.035156 L 331.359375 132.28125 C 336.089844 132.894531 339.636719 136.964844 339.636719 141.792969 L 339.636719 272.433594 C 339.417969 280.445312 329.660156 284.132812 329.660156 284.132812 L 138.988281 259.4375 " fill-opacity="1" fill-rule="nonzero"/><path fill="#ffffff" d="M 319.902344 278.226562 L 144.359375 255.582031 C 139.941406 255.011719 136.628906 251.207031 136.628906 246.699219 L 136.628906 124.683594 C 136.628906 120.488281 140.265625 117.25 144.375 117.777344 L 319.921875 140.425781 C 324.339844 140.992188 327.652344 144.796875 327.652344 149.308594 L 327.652344 271.324219 C 327.652344 275.519531 324.015625 278.757812 319.902344 278.226562 " fill-opacity="1" fill-rule="nonzero"/><path fill="#ffffff" d="M 341.761719 247.902344 L 161.730469 224.675781 C 157.195312 224.089844 153.800781 220.1875 153.800781 215.566406 L 153.800781 83.273438 C 153.800781 78.976562 157.53125 75.652344 161.75 76.195312 L 341.777344 99.417969 C 346.3125 100.003906 349.707031 103.90625 349.707031 108.53125 L 349.707031 240.820312 C 349.707031 245.121094 345.976562 248.445312 341.761719 247.902344 " fill-opacity="1" fill-rule="nonzero"/><path fill="#575757" d="M 153.800781 100.34375 L 153.800781 83.273438 C 153.800781 78.976562 157.53125 75.652344 161.75 76.195312 L 341.777344 99.417969 C 346.3125 100.003906 349.707031 103.90625 349.707031 108.53125 L 349.707031 125.601562 L 153.800781 100.34375 " fill-opacity="1" fill-rule="nonzero"/><path fill="#000000" d="M 342.652344 248.585938 C 342.328125 248.585938 342.003906 248.566406 341.683594 248.523438 L 212.214844 231.824219 C 211.867188 231.777344 211.625 231.464844 211.671875 231.121094 C 211.714844 230.773438 212.03125 230.53125 212.375 230.574219 L 341.839844 247.277344 C 343.65625 247.511719 345.488281 246.949219 346.867188 245.738281 C 348.273438 244.5 349.082031 242.707031 349.082031 240.820312 L 349.082031 108.53125 C 349.082031 104.234375 345.90625 100.585938 341.699219 100.042969 L 161.667969 76.820312 C 159.855469 76.585938 158.023438 77.144531 156.640625 78.363281 C 155.234375 79.597656 154.429688 81.390625 154.429688 83.277344 L 154.429688 215.566406 C 154.429688 219.859375 157.601562 223.507812 161.8125 224.054688 L 196.332031 228.507812 C 196.675781 228.550781 196.917969 228.867188 196.875 229.210938 C 196.828125 229.554688 196.511719 229.796875 196.167969 229.753906 L 161.652344 225.300781 C 156.816406 224.675781 153.171875 220.492188 153.171875 215.566406 L 153.171875 83.277344 C 153.171875 81.027344 154.136719 78.890625 155.8125 77.417969 C 157.464844 75.964844 159.65625 75.292969 161.828125 75.570312 L 341.859375 98.796875 C 346.691406 99.421875 350.335938 103.605469 350.335938 108.53125 L 350.335938 240.820312 C 350.335938 243.066406 349.375 245.203125 347.699219 246.679688 C 346.292969 247.914062 344.492188 248.585938 342.652344 248.585938 " fill-opacity="1" fill-rule="nonzero"/><path fill="#ffffff" d="M 173.425781 88.214844 C 173.425781 90.566406 171.539062 92.472656 169.21875 92.472656 C 166.894531 92.472656 165.015625 90.566406 165.015625 88.214844 C 165.015625 85.867188 166.894531 83.964844 169.21875 83.964844 C 171.539062 83.964844 173.425781 85.867188 173.425781 88.214844 " fill-opacity="1" fill-rule="nonzero"/><path fill="#ffffff" d="M 188.652344 90.050781 C 188.652344 92.398438 186.769531 94.304688 184.449219 94.304688 C 182.125 94.304688 180.246094 92.398438 180.246094 90.050781 C 180.246094 87.699219 182.125 85.796875 184.449219 85.796875 C 186.769531 85.796875 188.652344 87.699219 188.652344 90.050781 " fill-opacity="1" fill-rule="nonzero"/><path fill="#ffffff" d="M 204.425781 92.070312 C 204.425781 94.417969 202.542969 96.320312 200.21875 96.320312 C 197.898438 96.320312 196.015625 94.417969 196.015625 92.070312 C 196.015625 89.71875 197.898438 87.8125 200.21875 87.8125 C 202.542969 87.8125 204.425781 89.71875 204.425781 92.070312 " fill-opacity="1" fill-rule="nonzero"/><path fill="#a8a8a8" d="M 329.183594 246.273438 C 329.183594 246.273438 350.679688 227.878906 355.011719 200.085938 C 359.347656 172.289062 351.101562 164.984375 343.386719 165.289062 C 335.667969 165.589844 323.074219 168.34375 321.300781 166.265625 C 319.523438 164.195312 330.242188 151.785156 331.539062 142.582031 C 332.839844 133.378906 329.992188 116.304688 303.273438 119.328125 C 276.546875 122.351562 212.132812 157.410156 239.753906 234.675781 L 329.183594 246.273438 " fill-opacity="1" fill-rule="nonzero"/><path fill="#000000" d="M 240.21875 234.101562 L 328.980469 245.613281 C 331.195312 243.628906 350.371094 225.769531 354.390625 199.988281 C 357.363281 180.945312 354.207031 172.703125 351.035156 169.144531 C 348.527344 166.324219 345.507812 165.828125 343.414062 165.914062 C 340.765625 166.015625 337.503906 166.417969 334.34375 166.800781 C 326.816406 167.726562 322.136719 168.210938 320.824219 166.675781 C 319.761719 165.433594 321.148438 162.921875 324.128906 157.804688 C 326.847656 153.140625 330.238281 147.328125 330.917969 142.492188 C 331.371094 139.265625 331.828125 131.140625 326.238281 125.394531 C 321.566406 120.59375 313.863281 118.761719 303.34375 119.949219 C 289.082031 121.566406 260.59375 133.546875 244.832031 158.832031 C 231.59375 180.066406 230.042969 205.390625 240.21875 234.101562 Z M 329.183594 246.902344 C 329.15625 246.902344 329.128906 246.898438 329.101562 246.894531 L 239.675781 235.296875 C 239.441406 235.265625 239.246094 235.109375 239.164062 234.886719 C 233.644531 219.445312 231.476562 204.730469 232.730469 191.152344 C 233.824219 179.253906 237.539062 168.15625 243.765625 158.167969 C 252.644531 143.921875 264.855469 134.792969 273.535156 129.644531 C 283.421875 123.773438 294.515625 119.6875 303.203125 118.699219 C 314.125 117.46875 322.179688 119.421875 327.140625 124.519531 C 333.117188 130.664062 332.644531 139.257812 332.164062 142.667969 C 331.445312 147.746094 327.992188 153.675781 325.210938 158.441406 C 323.539062 161.3125 321.25 165.242188 321.78125 165.859375 C 322.71875 166.960938 329.082031 166.183594 334.191406 165.558594 C 337.375 165.167969 340.667969 164.761719 343.363281 164.65625 C 346.742188 164.527344 349.730469 165.789062 351.972656 168.304688 C 356.777344 173.703125 358.046875 184.722656 355.636719 200.179688 C 351.3125 227.882812 329.808594 246.566406 329.59375 246.753906 C 329.476562 246.847656 329.332031 246.902344 329.183594 246.902344 " fill-opacity="1" fill-rule="nonzero"/><path fill="#ffffff" d="M 303.140625 189.171875 C 299.808594 195.765625 300.097656 202.664062 303.792969 204.574219 C 307.492188 206.488281 313.195312 202.691406 316.527344 196.09375 C 319.859375 189.5 319.570312 182.601562 315.871094 180.6875 C 312.175781 178.777344 306.472656 182.570312 303.140625 189.171875 " fill-opacity="1" fill-rule="nonzero"/><path fill="#000000" d="M 303.699219 189.453125 C 300.527344 195.734375 300.695312 202.265625 304.082031 204.019531 C 305.078125 204.535156 306.3125 204.578125 307.65625 204.144531 C 310.675781 203.167969 313.859375 199.972656 315.96875 195.8125 C 319.140625 189.53125 318.964844 183 315.582031 181.25 C 314.582031 180.730469 313.347656 180.6875 312.011719 181.121094 C 308.988281 182.097656 305.804688 185.289062 303.699219 189.453125 Z M 305.902344 205.699219 C 305.039062 205.699219 304.234375 205.507812 303.507812 205.132812 C 299.441406 203.03125 299.035156 195.894531 302.578125 188.886719 C 304.828125 184.433594 308.292969 181 311.625 179.921875 C 313.285156 179.386719 314.855469 179.457031 316.15625 180.132812 C 320.222656 182.234375 320.628906 189.371094 317.085938 196.378906 C 314.835938 200.832031 311.367188 204.261719 308.042969 205.339844 C 307.300781 205.578125 306.585938 205.699219 305.902344 205.699219 " fill-opacity="1" fill-rule="nonzero"/><path fill="#333333" d="M 320.589844 145.644531 C 320.589844 150.820312 316.441406 155.019531 311.324219 155.019531 C 306.207031 155.019531 302.058594 150.820312 302.058594 145.644531 C 302.058594 140.46875 306.207031 136.269531 311.324219 136.269531 C 316.441406 136.269531 320.589844 140.46875 320.589844 145.644531 " fill-opacity="1" fill-rule="nonzero"/><path fill="#575757" d="M 291.582031 148.667969 C 291.582031 153.84375 287.433594 158.039062 282.316406 158.039062 C 277.199219 158.039062 273.050781 153.84375 273.050781 148.667969 C 273.050781 143.488281 277.199219 139.296875 282.316406 139.296875 C 287.433594 139.296875 291.582031 143.488281 291.582031 148.667969 " fill-opacity="1" fill-rule="nonzero"/><path fill="#a8a8a8" d="M 268.824219 169.871094 C 268.824219 175.046875 264.675781 179.242188 259.558594 179.242188 C 254.441406 179.242188 250.292969 175.046875 250.292969 169.871094 C 250.292969 164.695312 254.441406 160.5 259.558594 160.5 C 264.675781 160.5 268.824219 164.695312 268.824219 169.871094 " fill-opacity="1" fill-rule="nonzero"/><path fill="#ffffff" d="M 257.648438 199.199219 C 257.648438 204.375 253.5 208.570312 248.382812 208.570312 C 243.265625 208.570312 239.117188 204.375 239.117188 199.199219 C 239.117188 194.023438 243.265625 189.828125 248.382812 189.828125 C 253.5 189.828125 257.648438 194.023438 257.648438 199.199219 " fill-opacity="1" fill-rule="nonzero"/><path fill="#575757" d="M 259.558594 179.871094 C 254.101562 179.871094 249.664062 175.382812 249.664062 169.871094 C 249.664062 164.355469 254.101562 159.867188 259.558594 159.867188 C 264.105469 159.867188 268.050781 162.976562 269.15625 167.429688 C 269.242188 167.765625 269.035156 168.109375 268.699219 168.191406 C 268.359375 168.273438 268.019531 168.070312 267.9375 167.734375 C 266.972656 163.84375 263.527344 161.128906 259.558594 161.128906 C 254.796875 161.128906 250.921875 165.046875 250.921875 169.871094 C 250.921875 174.691406 254.796875 178.613281 259.558594 178.613281 C 259.90625 178.613281 260.1875 178.894531 260.1875 179.242188 C 260.1875 179.589844 259.90625 179.871094 259.558594 179.871094 " fill-opacity="1" fill-rule="nonzero"/><path fill="#ffffff" d="M 203.492188 256.894531 L 105.839844 244.296875 C 103.378906 243.980469 101.535156 241.863281 101.535156 239.351562 L 101.535156 171.476562 C 101.535156 169.144531 103.558594 167.339844 105.847656 167.636719 L 203.5 180.234375 C 205.960938 180.550781 207.804688 182.667969 207.804688 185.175781 L 207.804688 253.054688 C 207.804688 255.386719 205.777344 257.1875 203.492188 256.894531 " fill-opacity="1" fill-rule="nonzero"/><path fill="#000000" d="M 196.410156 256.609375 C 196.382812 256.609375 196.359375 256.609375 196.328125 256.605469 L 126.527344 247.597656 C 126.183594 247.554688 125.941406 247.238281 125.984375 246.894531 C 126.027344 246.550781 126.34375 246.308594 126.6875 246.351562 L 196.492188 255.359375 C 196.835938 255.402344 197.078125 255.71875 197.035156 256.0625 C 196.992188 256.378906 196.722656 256.609375 196.410156 256.609375 " fill-opacity="1" fill-rule="nonzero"/><path fill="#000000" d="M 207.800781 243.203125 C 207.453125 243.203125 207.171875 242.917969 207.171875 242.570312 L 207.171875 185.175781 C 207.171875 182.988281 205.5625 181.132812 203.417969 180.859375 L 105.765625 168.261719 C 104.863281 168.140625 103.953125 168.425781 103.269531 169.027344 C 102.566406 169.644531 102.164062 170.539062 102.164062 171.476562 L 102.164062 207.609375 C 102.164062 207.953125 101.882812 208.234375 101.535156 208.234375 C 101.191406 208.234375 100.90625 207.953125 100.90625 207.609375 L 100.90625 171.476562 C 100.90625 170.175781 101.464844 168.9375 102.4375 168.082031 C 103.394531 167.242188 104.667969 166.851562 105.929688 167.015625 L 203.582031 179.613281 C 206.347656 179.96875 208.429688 182.359375 208.429688 185.175781 L 208.429688 242.570312 C 208.429688 242.917969 208.148438 243.203125 207.800781 243.203125 " fill-opacity="1" fill-rule="nonzero"/><path fill="#ffffff" d="M 204.285156 172.300781 L 106.632812 159.707031 C 104.171875 159.386719 102.328125 157.269531 102.328125 154.761719 L 102.328125 86.886719 C 102.328125 84.554688 104.355469 82.75 106.640625 83.046875 L 204.292969 95.644531 C 206.75 95.960938 208.597656 98.078125 208.597656 100.585938 L 208.597656 168.464844 C 208.597656 170.792969 206.574219 172.597656 204.285156 172.300781 " fill-opacity="1" fill-rule="nonzero"/><path fill="#575757" d="M 186.777344 111.34375 C 186.390625 116.457031 181.980469 120.285156 176.929688 119.894531 C 171.875 119.5 168.09375 115.039062 168.480469 109.929688 C 168.867188 104.816406 173.277344 100.992188 178.328125 101.382812 C 183.382812 101.773438 187.167969 106.234375 186.777344 111.34375 " fill-opacity="1" fill-rule="nonzero"/><path fill="#333333" d="M 204.355469 172.304688 C 206.644531 172.597656 208.738281 170.796875 208.738281 168.460938 L 208.738281 166.5 L 177.613281 129.574219 C 175.585938 127.167969 172.019531 126.785156 169.539062 128.703125 L 167.910156 129.949219 C 165.4375 131.859375 161.90625 131.484375 159.878906 129.09375 L 144.609375 111.097656 C 142.496094 108.613281 138.820312 108.324219 136.359375 110.457031 L 102.394531 139.789062 L 102.394531 154.765625 C 102.394531 157.269531 104.242188 159.390625 106.699219 159.707031 L 204.355469 172.304688 " fill-opacity="1" fill-rule="nonzero"/><path fill="#000000" d="M 106.15625 83.644531 C 105.394531 83.644531 104.644531 83.921875 104.0625 84.433594 C 103.359375 85.050781 102.957031 85.945312 102.957031 86.886719 L 102.957031 154.761719 C 102.957031 156.949219 104.574219 158.804688 106.710938 159.082031 L 204.367188 171.679688 C 205.265625 171.796875 206.175781 171.515625 206.863281 170.914062 C 207.566406 170.296875 207.96875 169.402344 207.96875 168.460938 L 207.96875 100.585938 C 207.96875 98.398438 206.351562 96.542969 204.214844 96.265625 L 106.5625 83.667969 C 106.425781 83.652344 106.292969 83.644531 106.15625 83.644531 Z M 204.765625 172.960938 C 204.582031 172.960938 204.390625 172.949219 204.203125 172.925781 L 106.550781 160.328125 C 103.785156 159.972656 101.703125 157.578125 101.703125 154.761719 L 101.703125 86.886719 C 101.703125 85.582031 102.257812 84.347656 103.230469 83.492188 C 104.191406 82.648438 105.460938 82.261719 106.722656 82.421875 L 204.375 95.019531 C 207.136719 95.375 209.222656 97.769531 209.222656 100.585938 L 209.222656 168.460938 C 209.222656 169.765625 208.664062 171 207.695312 171.855469 C 206.878906 172.574219 205.835938 172.960938 204.765625 172.960938 " fill-opacity="1" fill-rule="nonzero"/><path fill="#a8a8a8" d="M 121.988281 182.839844 L 106.257812 181.019531 L 106.371094 175.292969 L 122.082031 177.089844 L 121.988281 182.839844 " fill-opacity="1" fill-rule="nonzero"/><path fill="#a8a8a8" d="M 188.804688 190.832031 L 131.695312 184.21875 L 131.777344 178.453125 L 188.816406 184.980469 L 188.804688 190.832031 " fill-opacity="1" fill-rule="nonzero"/><path fill="#a8a8a8" d="M 121.339844 211.652344 L 105.519531 209.714844 L 105.632812 203.921875 L 121.433594 205.832031 L 121.339844 211.652344 " fill-opacity="1" fill-rule="nonzero"/><path fill="#a8a8a8" d="M 188.535156 220.140625 L 131.097656 213.105469 L 131.179688 207.273438 L 188.550781 214.222656 L 188.535156 220.140625 " fill-opacity="1" fill-rule="nonzero"/><path fill="#a8a8a8" d="M 120.503906 240.25 L 104.597656 238.195312 L 104.710938 232.335938 L 120.601562 234.363281 L 120.503906 240.25 " fill-opacity="1" fill-rule="nonzero"/><path fill="#a8a8a8" d="M 188.074219 249.238281 L 130.316406 241.777344 L 130.402344 235.878906 L 188.089844 243.25 L 188.074219 249.238281 " fill-opacity="1" fill-rule="nonzero"/><path fill="#a8a8a8" d="M 146.332031 195.734375 L 131.488281 193.980469 L 131.570312 188.191406 L 146.398438 189.921875 L 146.332031 195.734375 " fill-opacity="1" fill-rule="nonzero"/><path fill="#a8a8a8" d="M 202.035156 202.570312 L 148.394531 196.238281 L 148.457031 190.421875 L 202.035156 196.675781 L 202.035156 202.570312 " fill-opacity="1" fill-rule="nonzero"/><path fill="#a8a8a8" d="M 146.039062 205.296875 L 131.167969 203.511719 L 131.25 197.699219 L 146.105469 199.464844 L 146.039062 205.296875 " fill-opacity="1" fill-rule="nonzero"/><path fill="#a8a8a8" d="M 201.847656 212.273438 L 148.105469 205.804688 L 148.167969 199.96875 L 201.847656 206.355469 L 201.847656 212.273438 " fill-opacity="1" fill-rule="nonzero"/><path fill="#a8a8a8" d="M 145.820312 224.582031 L 130.894531 222.722656 L 130.976562 216.863281 L 145.886719 218.703125 L 145.820312 224.582031 " fill-opacity="1" fill-rule="nonzero"/><path fill="#a8a8a8" d="M 201.847656 231.835938 L 147.894531 225.101562 L 147.957031 219.222656 L 201.847656 225.871094 L 201.847656 231.835938 " fill-opacity="1" fill-rule="nonzero"/><path fill="#a8a8a8" d="M 145.523438 234.257812 L 130.570312 232.359375 L 130.652344 226.480469 L 145.589844 228.355469 L 145.523438 234.257812 " fill-opacity="1" fill-rule="nonzero"/><path fill="#a8a8a8" d="M 201.652344 241.648438 L 147.601562 234.785156 L 147.667969 228.878906 L 201.652344 235.660156 L 201.652344 241.648438 " fill-opacity="1" fill-rule="nonzero"/><path fill="#333333" d="M 41.738281 256.511719 C 43.332031 236.070312 62.054688 220.730469 83.558594 222.246094 C 105.058594 223.757812 121.195312 241.558594 119.601562 261.996094 C 118.007812 282.433594 99.289062 297.777344 77.785156 296.261719 C 56.285156 294.746094 40.144531 276.949219 41.738281 256.511719 Z M 28.816406 271.238281 L 17.714844 279.378906 L 23.125 290.445312 L 36.808594 287.625 C 38.511719 289.921875 40.4375 292.097656 42.5625 294.132812 L 37.230469 306.457031 L 47.734375 313.46875 L 58.117188 304.511719 C 60.855469 305.722656 63.660156 306.703125 66.511719 307.441406 L 68.375 320.632812 L 81.160156 321.710938 L 85.441406 309.019531 C 88.410156 308.761719 91.355469 308.273438 94.238281 307.554688 L 102.804688 318.109375 L 114.441406 312.960938 L 111.476562 299.957031 C 113.894531 298.339844 116.179688 296.507812 118.324219 294.488281 L 131.289062 299.558594 L 138.664062 289.570312 L 129.242188 279.703125 C 130.515625 277.097656 131.546875 274.429688 132.324219 271.722656 L 146.203125 269.949219 L 147.335938 257.796875 L 133.984375 253.730469 C 133.714844 250.90625 133.199219 248.109375 132.441406 245.367188 L 143.542969 237.222656 L 138.132812 226.160156 L 124.449219 228.980469 C 122.75 226.683594 120.824219 224.507812 118.695312 222.46875 L 124.027344 210.144531 L 113.523438 203.136719 L 103.140625 212.09375 C 100.402344 210.882812 97.597656 209.902344 94.746094 209.164062 L 92.882812 195.972656 L 80.097656 194.894531 L 75.816406 207.585938 C 72.847656 207.84375 69.90625 208.332031 67.019531 209.050781 L 58.457031 198.5 L 46.816406 203.640625 L 49.78125 216.648438 C 47.363281 218.265625 45.078125 220.09375 42.933594 222.117188 L 29.96875 217.050781 L 22.59375 227.035156 L 32.015625 236.902344 C 30.742188 239.503906 29.710938 242.171875 28.933594 244.882812 L 15.058594 246.652344 L 13.921875 258.804688 L 27.277344 262.875 C 27.546875 265.699219 28.0625 268.496094 28.816406 271.238281 " fill-opacity="1" fill-rule="nonzero"/><g clip-path="url(#0e05e458fe)"><g clip-path="url(#fa9707b15f)"><path fill="#ffffff" d="M 112.191406 238.414062 C 113.113281 238.34375 117.632812 247.597656 131.777344 247.210938 C 145.921875 246.824219 157.265625 230.996094 157.265625 230.996094 C 157.265625 230.996094 162.152344 222.757812 165.859375 219.78125 C 169.566406 216.804688 170.144531 216.414062 170.144531 216.414062 C 170.144531 216.414062 171.308594 217.960938 170.144531 219.78125 C 168.984375 221.605469 165.777344 225.011719 165.777344 225.011719 C 165.777344 225.011719 169.308594 226.953125 167.714844 230.996094 C 165.882812 235.644531 160.714844 235.269531 160.714844 235.269531 C 160.714844 235.269531 150.226562 281.699219 106.890625 259.636719 L 112.191406 238.414062 " fill-opacity="1" fill-rule="nonzero"/></g></g><g clip-path="url(#718cd7d561)"><g clip-path="url(#fea794e89c)"><path fill="#000000" d="M 107.621094 259.300781 C 120.195312 265.597656 131.144531 266.640625 140.183594 262.398438 C 155.398438 255.253906 160.054688 235.335938 160.101562 235.132812 C 160.171875 234.828125 160.449219 234.621094 160.761719 234.644531 C 160.949219 234.65625 165.496094 234.917969 167.132812 230.765625 C 168.507812 227.277344 165.597656 225.632812 165.472656 225.566406 C 165.300781 225.46875 165.183594 225.300781 165.15625 225.113281 C 165.125 224.921875 165.183594 224.722656 165.316406 224.582031 C 165.351562 224.550781 168.5 221.195312 169.617188 219.445312 C 170.148438 218.609375 170.074219 217.855469 169.917969 217.367188 C 169.351562 217.800781 168.269531 218.652344 166.25 220.269531 C 162.671875 223.144531 157.855469 231.234375 157.804688 231.316406 C 157.796875 231.332031 157.789062 231.347656 157.777344 231.363281 C 157.304688 232.019531 146.082031 247.445312 131.792969 247.839844 C 120.289062 248.152344 115.046875 242.3125 112.8125 239.820312 C 112.726562 239.726562 112.640625 239.632812 112.558594 239.539062 Z M 128.382812 266.214844 C 121.761719 266.214844 114.480469 264.207031 106.605469 260.195312 C 106.34375 260.0625 106.210938 259.769531 106.28125 259.484375 L 111.582031 238.261719 C 111.648438 238 111.875 237.808594 112.144531 237.789062 C 112.644531 237.753906 112.988281 238.136719 113.746094 238.980469 C 115.867188 241.34375 120.828125 246.882812 131.757812 246.582031 C 145.203125 246.214844 156.269531 231.296875 156.742188 230.652344 C 157.097656 230.050781 161.777344 222.253906 165.464844 219.292969 C 169.148438 216.332031 169.769531 215.90625 169.792969 215.890625 C 170.074219 215.703125 170.449219 215.765625 170.648438 216.035156 C 170.707031 216.109375 172.058594 217.957031 170.675781 220.117188 C 169.765625 221.546875 167.691406 223.859375 166.734375 224.90625 C 168.054688 225.957031 169.511719 228.152344 168.300781 231.226562 C 166.683594 235.324219 162.660156 235.847656 161.207031 235.898438 C 160.367188 239.074219 155.117188 256.777344 140.714844 263.535156 C 136.914062 265.324219 132.792969 266.214844 128.382812 266.214844 " fill-opacity="1" fill-rule="nonzero"/></g></g><g clip-path="url(#242e1ff190)"><g clip-path="url(#e68d474f6f)"><path fill="#ffffff" d="M 39.691406 259.230469 C 39.691406 259.230469 42.207031 230.742188 61.332031 225.503906 C 77.1875 221.15625 96.613281 219.699219 102.207031 223.066406 C 107.800781 226.429688 122.382812 241.648438 122.382812 241.648438 L 109.5 259.636719 C 109.5 259.636719 112.445312 308.058594 110.117188 320.839844 C 110.117188 320.839844 95.78125 322.511719 89.703125 320.117188 C 83.625 317.722656 63.636719 314.367188 54.082031 318.757812 L 55.816406 257.457031 L 39.691406 259.230469 " fill-opacity="1" fill-rule="nonzero"/></g></g><g clip-path="url(#b61dda77fe)"><g clip-path="url(#490a5b03be)"><path fill="#000000" d="M 67.066406 315.996094 C 76.171875 315.996094 85.992188 317.980469 89.933594 319.53125 C 95.191406 321.605469 107.078125 320.523438 109.578125 320.265625 C 111.71875 307.035156 108.902344 260.152344 108.871094 259.675781 C 108.863281 259.53125 108.902344 259.386719 108.988281 259.273438 L 121.566406 241.710938 C 119.285156 239.347656 106.855469 226.597656 101.882812 223.605469 C 96.675781 220.472656 77.804688 221.640625 61.5 226.109375 C 44.742188 230.699219 40.984375 253.980469 40.40625 258.519531 L 55.75 256.832031 C 55.929688 256.8125 56.109375 256.871094 56.242188 256.992188 C 56.375 257.117188 56.449219 257.292969 56.445312 257.472656 L 54.738281 317.800781 C 58.109375 316.496094 62.496094 315.996094 67.066406 315.996094 Z M 100.011719 322.042969 C 96.175781 322.042969 92.109375 321.742188 89.472656 320.703125 C 83.203125 318.234375 63.429688 315.15625 54.34375 319.332031 C 54.148438 319.421875 53.914062 319.402344 53.734375 319.285156 C 53.554688 319.164062 53.445312 318.957031 53.453125 318.742188 L 55.167969 258.160156 L 39.761719 259.855469 C 39.574219 259.875 39.386719 259.8125 39.253906 259.679688 C 39.117188 259.546875 39.050781 259.363281 39.066406 259.175781 C 39.074219 259.101562 39.738281 251.875 42.753906 244.101562 C 46.78125 233.734375 53.144531 227.09375 61.167969 224.894531 C 76.199219 220.777344 96.410156 218.84375 102.53125 222.527344 C 108.132812 225.898438 122.238281 240.59375 122.835938 241.214844 C 123.046875 241.433594 123.070312 241.769531 122.894531 242.015625 L 110.140625 259.820312 C 110.378906 263.832031 112.992188 308.550781 110.734375 320.953125 C 110.683594 321.226562 110.464844 321.433594 110.1875 321.464844 C 109.851562 321.503906 105.136719 322.042969 100.011719 322.042969 " fill-opacity="1" fill-rule="nonzero"/></g></g><g clip-path="url(#772cd63ea0)"><g clip-path="url(#771349d383)"><path fill="#000000" d="M 67.25 306.753906 C 66.953125 306.753906 66.6875 306.539062 66.632812 306.234375 C 66.574219 305.894531 66.800781 305.566406 67.140625 305.507812 C 89.785156 301.503906 96.402344 285.847656 96.46875 285.6875 C 96.597656 285.367188 96.964844 285.214844 97.285156 285.34375 C 97.605469 285.472656 97.761719 285.839844 97.632812 286.160156 C 97.566406 286.324219 90.722656 302.617188 67.363281 306.742188 C 67.324219 306.75 67.289062 306.753906 67.25 306.753906 " fill-opacity="1" fill-rule="nonzero"/></g></g><g clip-path="url(#81cd19871f)"><g clip-path="url(#379239baf8)"><path fill="#000000" d="M 108.414062 278.785156 L 79.234375 278.785156 L 88.375 246.191406 L 117.554688 246.191406 L 108.414062 278.785156 " fill-opacity="1" fill-rule="nonzero"/></g></g><g clip-path="url(#e70e140fd1)"><g clip-path="url(#569c242123)"><path fill="#ffffff" d="M 41.367188 258.949219 L 59.433594 253.140625 C 59.433594 253.140625 57.355469 278.164062 87.230469 266.609375 C 87.230469 266.609375 86.128906 263.394531 86.285156 259.636719 C 86.441406 255.878906 88.6875 259.515625 89.003906 262.570312 C 89.316406 265.621094 96.332031 264.378906 100.546875 263.179688 C 104.761719 261.976562 110.296875 262.765625 100.546875 268.140625 C 90.800781 273.519531 88.664062 271.121094 88.664062 271.121094 C 88.664062 271.121094 74.175781 288.066406 58.683594 284.367188 C 39.632812 279.816406 41.367188 258.949219 41.367188 258.949219 " fill-opacity="1" fill-rule="nonzero"/></g></g><g clip-path="url(#d1e1d12263)"><g clip-path="url(#34f3028054)"><path fill="#000000" d="M 41.972656 259.417969 C 41.921875 260.75 41.90625 265.109375 43.492188 269.789062 C 46.007812 277.226562 51.167969 281.925781 58.832031 283.757812 C 73.773438 287.328125 88.042969 270.878906 88.183594 270.710938 C 88.304688 270.574219 88.476562 270.492188 88.65625 270.492188 C 88.84375 270.488281 89.011719 270.566406 89.132812 270.703125 C 89.136719 270.703125 91.316406 272.515625 100.246094 267.589844 C 105.414062 264.738281 105.347656 263.65625 105.347656 263.648438 C 105.222656 263.332031 103.292969 263.050781 100.71875 263.785156 C 98.71875 264.355469 91.984375 266.082031 89.421875 264.347656 C 88.8125 263.9375 88.453125 263.34375 88.378906 262.632812 C 88.207031 260.96875 87.472656 259.363281 87.011719 258.824219 C 86.972656 258.988281 86.929688 259.25 86.914062 259.664062 C 86.765625 263.257812 87.816406 266.375 87.828125 266.40625 C 87.9375 266.722656 87.773438 267.074219 87.457031 267.195312 C 77.164062 271.175781 69.433594 271.316406 64.476562 267.605469 C 59.175781 263.640625 58.746094 256.554688 58.769531 254.015625 Z M 63.273438 285.53125 C 61.71875 285.53125 60.136719 285.359375 58.539062 284.980469 C 48.417969 282.558594 44.113281 275.582031 42.285156 270.152344 C 40.320312 264.3125 40.722656 259.117188 40.742188 258.898438 C 40.761719 258.644531 40.933594 258.429688 41.175781 258.355469 L 59.242188 252.542969 C 59.441406 252.480469 59.660156 252.519531 59.824219 252.648438 C 59.988281 252.78125 60.078125 252.984375 60.058594 253.191406 C 60.050781 253.28125 59.390625 262.238281 65.238281 266.605469 C 69.738281 269.96875 76.875 269.839844 86.460938 266.230469 C 86.144531 265.117188 85.535156 262.535156 85.660156 259.609375 C 85.679688 259.074219 85.75 257.441406 86.863281 257.40625 C 86.875 257.40625 86.882812 257.40625 86.894531 257.40625 C 88.34375 257.40625 89.445312 260.714844 89.628906 262.503906 C 89.664062 262.847656 89.820312 263.101562 90.125 263.308594 C 91.808594 264.445312 96.699219 263.625 100.375 262.574219 C 102.492188 261.96875 105.875 261.628906 106.507812 263.167969 C 107.066406 264.523438 105.320312 266.222656 100.851562 268.691406 C 93.210938 272.90625 89.976562 272.480469 88.78125 271.9375 C 86.652344 274.292969 75.851562 285.53125 63.273438 285.53125 " fill-opacity="1" fill-rule="nonzero"/></g></g><g clip-path="url(#dc0d384801)"><g clip-path="url(#ea5c0e5f5b)"><path fill="#000000" d="M 84.085938 213.015625 C 82.808594 214.183594 80.316406 215.609375 78.363281 214.628906 C 76.910156 213.894531 76.097656 212 76.148438 209.828125 C 75.476562 209.882812 74.59375 209.835938 73.964844 209.277344 C 72.996094 208.421875 73.175781 206.847656 73.214844 205.8125 C 73.390625 201.03125 70.613281 200.296875 71.292969 197.054688 C 71.824219 194.503906 73.828125 192.984375 74.203125 192.703125 C 76.09375 191.269531 77.375 191.730469 80.550781 190.898438 C 85.902344 189.496094 86.070312 187.191406 89.59375 187.179688 C 89.800781 187.179688 94.59375 187.234375 96.222656 190.546875 C 97.546875 193.242188 96 196.515625 94.402344 198.238281 C 92.332031 200.464844 90.84375 199.363281 88.769531 201.234375 C 85.121094 204.511719 87.875 209.546875 84.085938 213.015625 " fill-opacity="1" fill-rule="nonzero"/></g></g><g clip-path="url(#8885f05924)"><g clip-path="url(#c89638fe1f)"><path fill="#ffffff" d="M 94.757812 204.488281 L 94.546875 204.304688 C 93.488281 203.394531 92.386719 202.335938 92.105469 200.964844 C 90.914062 195.144531 85.582031 193.035156 85.335938 198.378906 C 85.273438 199.726562 80.351562 199.65625 80.933594 201.070312 C 82.457031 204.761719 82.492188 203.769531 80.34375 205.128906 C 80.097656 205.136719 79.855469 205.191406 79.628906 205.296875 C 78.527344 205.8125 78.136719 207.308594 78.757812 208.640625 C 79.132812 209.449219 79.796875 210.007812 80.507812 210.210938 L 80.507812 216.035156 C 80.507812 218.222656 79.1875 220.191406 77.164062 221.015625 L 75.195312 221.820312 C 75.195312 221.820312 84.371094 227.8125 93.6875 221.234375 L 92.445312 220.679688 C 90.253906 219.695312 88.816406 217.550781 88.742188 215.152344 L 88.734375 214.011719 C 89.359375 214.070312 89.964844 214.023438 90.527344 213.863281 C 93.132812 213.105469 93.996094 210.101562 93.554688 206.371094 L 94.613281 205.800781 C 95.109375 205.535156 95.183594 204.855469 94.757812 204.488281 " fill-opacity="1" fill-rule="nonzero"/></g></g><g clip-path="url(#a053a28c1b)"><g clip-path="url(#accf77c7bf)"><path fill="#000000" d="M 76.644531 221.910156 C 79.167969 223.160156 85.617188 225.519531 92.390625 221.34375 L 92.1875 221.25 C 89.796875 220.179688 88.195312 217.792969 88.113281 215.171875 L 88.105469 214.015625 C 88.101562 213.839844 88.175781 213.671875 88.304688 213.550781 C 88.4375 213.429688 88.609375 213.371094 88.789062 213.386719 C 89.359375 213.4375 89.886719 213.394531 90.351562 213.257812 C 93.308594 212.398438 93.140625 208.207031 92.929688 206.445312 C 92.898438 206.1875 93.027344 205.9375 93.257812 205.816406 L 94.316406 205.246094 C 94.382812 205.210938 94.402344 205.152344 94.40625 205.113281 C 94.410156 205.078125 94.410156 205.015625 94.347656 204.964844 L 94.136719 204.78125 C 93.027344 203.824219 91.816406 202.671875 91.492188 201.09375 C 90.777344 197.621094 88.605469 195.84375 87.363281 195.9375 C 86.542969 196.003906 86.035156 196.902344 85.964844 198.40625 C 85.914062 199.507812 84.539062 199.890625 83.214844 200.261719 C 82.664062 200.414062 81.773438 200.667969 81.535156 200.878906 C 81.746094 201.390625 81.929688 201.808594 82.078125 202.152344 C 82.796875 203.804688 83.039062 204.363281 81.582031 205.140625 C 81.339844 205.269531 81.042969 205.429688 80.679688 205.660156 C 80.585938 205.71875 80.480469 205.75 80.367188 205.757812 C 80.195312 205.761719 80.039062 205.800781 79.894531 205.867188 C 79.109375 206.234375 78.851562 207.359375 79.328125 208.375 C 79.609375 208.984375 80.117188 209.441406 80.679688 209.605469 C 80.949219 209.679688 81.136719 209.929688 81.136719 210.210938 L 81.136719 216.035156 C 81.136719 218.488281 79.667969 220.671875 77.402344 221.597656 Z M 84.273438 224.925781 C 78.894531 224.925781 74.914062 222.386719 74.851562 222.347656 C 74.65625 222.222656 74.546875 221.996094 74.570312 221.761719 C 74.589844 221.53125 74.742188 221.328125 74.957031 221.238281 L 76.925781 220.4375 C 78.71875 219.703125 79.878906 217.976562 79.878906 216.035156 L 79.878906 210.644531 C 79.15625 210.304688 78.554688 209.695312 78.1875 208.90625 C 77.421875 207.261719 77.949219 205.386719 79.363281 204.726562 C 79.605469 204.617188 79.867188 204.542969 80.140625 204.511719 C 80.480469 204.304688 80.761719 204.15625 80.988281 204.03125 C 81.136719 203.953125 81.296875 203.867188 81.386719 203.808594 C 81.339844 203.601562 81.136719 203.140625 80.925781 202.652344 C 80.769531 202.289062 80.578125 201.847656 80.355469 201.3125 C 80.222656 200.988281 80.226562 200.660156 80.371094 200.363281 C 80.714844 199.65625 81.714844 199.375 82.875 199.050781 C 83.46875 198.886719 84.578125 198.574219 84.714844 198.320312 C 84.855469 195.125 86.703125 194.726562 87.265625 194.683594 C 89.253906 194.53125 91.902344 196.835938 92.722656 200.839844 C 92.96875 202.03125 94.003906 203.007812 94.957031 203.828125 L 95.167969 204.011719 C 95.527344 204.316406 95.707031 204.78125 95.65625 205.25 C 95.605469 205.71875 95.328125 206.132812 94.910156 206.355469 L 94.222656 206.726562 C 94.617188 210.886719 93.34375 213.699219 90.703125 214.464844 C 90.285156 214.589844 89.839844 214.652344 89.367188 214.664062 L 89.371094 215.144531 C 89.4375 217.277344 90.746094 219.226562 92.703125 220.105469 L 93.945312 220.664062 C 94.152344 220.753906 94.292969 220.949219 94.3125 221.175781 C 94.335938 221.398438 94.234375 221.617188 94.050781 221.75 C 90.652344 224.148438 87.25 224.925781 84.273438 224.925781 " fill-opacity="1" fill-rule="nonzero"/></g></g><g clip-path="url(#9a277495c0)"><g clip-path="url(#a901f78fcf)"><path fill="#000000" d="M 88.734375 214.640625 C 88.703125 214.640625 88.667969 214.640625 88.636719 214.632812 C 84.765625 214.039062 83.019531 211.074219 82.949219 210.949219 C 82.777344 210.648438 82.878906 210.265625 83.179688 210.089844 C 83.480469 209.917969 83.863281 210.019531 84.035156 210.320312 C 84.050781 210.347656 85.570312 212.890625 88.828125 213.390625 C 89.171875 213.445312 89.40625 213.765625 89.355469 214.109375 C 89.304688 214.417969 89.039062 214.640625 88.734375 214.640625 " fill-opacity="1" fill-rule="nonzero"/></g></g><path fill="#ffffff" d="M 302.082031 56.113281 C 302.082031 56.113281 294.199219 39.707031 286.378906 44.960938 C 278.5625 50.21875 297.625 86.828125 297.625 86.828125 C 297.625 86.828125 269.425781 81.351562 264.292969 86.441406 C 259.15625 91.53125 259.125 97.496094 262.074219 95.980469 C 265.023438 94.464844 265.234375 90.246094 269 91.726562 C 272.773438 93.207031 272.757812 94.644531 278.003906 91.726562 C 283.246094 88.808594 319.238281 103.96875 318.625 97.785156 C 317.601562 87.472656 302.082031 56.113281 302.082031 56.113281 " fill-opacity="1" fill-rule="nonzero"/><path fill="#000000" d="M 280.097656 90.734375 C 284.019531 90.734375 291.046875 92.691406 298.394531 94.738281 C 306.316406 96.949219 316.175781 99.695312 317.851562 98.285156 C 317.945312 98.207031 318.027344 98.101562 317.996094 97.84375 C 317 87.765625 301.675781 56.707031 301.519531 56.394531 L 301.515625 56.386719 C 301.46875 56.289062 296.59375 46.265625 290.972656 44.742188 C 289.46875 44.332031 288.082031 44.574219 286.730469 45.484375 C 280.699219 49.539062 292.953125 76.492188 298.183594 86.535156 L 298.785156 87.695312 L 297.503906 87.445312 C 289.753906 85.9375 268.757812 82.902344 264.734375 86.886719 C 261.125 90.464844 260.226562 94.460938 260.941406 95.441406 C 260.992188 95.519531 261.15625 95.742188 261.785156 95.421875 C 262.773438 94.914062 263.441406 94.03125 264.082031 93.175781 C 265.1875 91.707031 266.445312 90.042969 269.234375 91.140625 C 270.039062 91.460938 270.667969 91.769531 271.222656 92.042969 C 273.175781 93.003906 273.832031 93.328125 277.699219 91.179688 C 278.25 90.871094 279.066406 90.734375 280.097656 90.734375 Z M 316.003906 99.90625 C 312.574219 99.90625 306.496094 98.300781 298.058594 95.949219 C 289.824219 93.65625 280.496094 91.054688 278.308594 92.273438 C 274.035156 94.652344 272.941406 94.289062 270.667969 93.167969 C 270.132812 92.90625 269.53125 92.609375 268.773438 92.3125 C 266.871094 91.5625 266.199219 92.457031 265.085938 93.933594 C 264.394531 94.855469 263.605469 95.902344 262.359375 96.539062 C 261.363281 97.050781 260.453125 96.917969 259.921875 96.183594 C 258.664062 94.449219 259.96875 89.839844 263.851562 85.996094 C 268.582031 81.308594 290.851562 84.960938 296.484375 85.976562 C 295.09375 83.214844 291.464844 75.820312 288.484375 68.089844 C 283.335938 54.765625 282.511719 46.804688 286.03125 44.441406 C 287.675781 43.332031 289.453125 43.027344 291.304688 43.53125 C 297.464844 45.203125 302.417969 55.363281 302.648438 55.839844 C 303.308594 57.175781 318.226562 87.425781 319.25 97.71875 C 319.3125 98.34375 319.109375 98.871094 318.660156 99.246094 C 318.125 99.699219 317.234375 99.90625 316.003906 99.90625 " fill-opacity="1" fill-rule="nonzero"/><path fill="#ffffff" d="M 223.457031 37.796875 C 223.484375 47.328125 215.777344 55.078125 206.242188 55.105469 C 196.710938 55.132812 188.957031 47.429688 188.929688 37.894531 C 188.902344 28.359375 196.609375 20.609375 206.144531 20.582031 C 215.679688 20.554688 223.429688 28.261719 223.457031 37.796875 " fill-opacity="1" fill-rule="nonzero"/><path fill="#000000" d="M 206.191406 55.734375 C 201.433594 55.734375 196.957031 53.890625 193.582031 50.53125 C 190.191406 47.164062 188.316406 42.675781 188.300781 37.898438 C 188.273438 28.03125 196.277344 19.980469 206.140625 19.953125 C 206.160156 19.953125 206.175781 19.953125 206.195312 19.953125 C 212.128906 19.953125 217.660156 22.882812 221 27.796875 C 221.199219 28.082031 221.121094 28.472656 220.835938 28.671875 C 220.546875 28.863281 220.15625 28.789062 219.964844 28.503906 C 216.84375 23.917969 211.671875 21.195312 206.144531 21.207031 C 196.972656 21.234375 189.53125 28.71875 189.558594 37.890625 C 189.574219 42.332031 191.316406 46.507812 194.46875 49.640625 C 197.605469 52.761719 201.769531 54.480469 206.191406 54.480469 C 206.210938 54.480469 206.226562 54.480469 206.242188 54.480469 C 208.667969 54.472656 211.003906 53.953125 213.1875 52.941406 C 213.503906 52.792969 213.878906 52.929688 214.023438 53.246094 C 214.171875 53.5625 214.035156 53.933594 213.71875 54.082031 C 211.367188 55.171875 208.855469 55.730469 206.246094 55.734375 C 206.230469 55.734375 206.210938 55.734375 206.191406 55.734375 " fill-opacity="1" fill-rule="nonzero"/><path fill="#333333" d="M 195.171875 37.84375 L 201.058594 40.058594 L 201.066406 42.484375 L 192.710938 38.792969 L 192.707031 36.867188 L 201.039062 33.132812 L 201.046875 35.558594 L 195.171875 37.84375 " fill-opacity="1" fill-rule="nonzero"/><path fill="#333333" d="M 204.402344 45.355469 L 202.5 45.359375 L 208.160156 29.585938 L 210.066406 29.582031 L 204.402344 45.355469 " fill-opacity="1" fill-rule="nonzero"/><path fill="#333333" d="M 217.964844 37.730469 L 211.800781 35.484375 L 211.792969 33.105469 L 220.414062 36.785156 L 220.417969 38.710938 L 211.820312 42.441406 L 211.8125 40.0625 L 217.964844 37.730469 " fill-opacity="1" fill-rule="nonzero"/><path fill="#000000" d="M 53.121094 125.339844 C 53.023438 125.339844 52.925781 125.320312 52.835938 125.269531 C 52.527344 125.113281 52.402344 124.734375 52.5625 124.425781 C 56.382812 116.917969 60.949219 109.699219 66.132812 102.96875 C 74.429688 92.203125 84.203125 82.796875 95.183594 75.007812 C 95.46875 74.808594 95.859375 74.875 96.0625 75.160156 C 96.261719 75.441406 96.195312 75.832031 95.910156 76.035156 C 85.035156 83.75 75.351562 93.070312 67.128906 103.738281 C 61.992188 110.40625 57.464844 117.558594 53.679688 124.996094 C 53.570312 125.214844 53.347656 125.339844 53.121094 125.339844 " fill-opacity="1" fill-rule="nonzero"/><path fill="#000000" d="M 100.574219 62.089844 C 100.363281 62.089844 100.15625 61.980469 100.035156 61.789062 C 99.855469 61.488281 99.953125 61.105469 100.25 60.921875 C 101.929688 59.90625 103.65625 58.914062 105.378906 57.96875 C 105.683594 57.800781 106.0625 57.914062 106.230469 58.21875 C 106.398438 58.523438 106.289062 58.902344 105.984375 59.070312 C 104.277344 60.007812 102.566406 60.992188 100.898438 62 C 100.796875 62.058594 100.6875 62.089844 100.574219 62.089844 " fill-opacity="1" fill-rule="nonzero"/><path fill="#000000" d="M 58.125 101.515625 C 58 101.515625 57.875 101.480469 57.761719 101.402344 C 57.480469 101.199219 57.414062 100.808594 57.617188 100.527344 C 58.683594 99.027344 59.792969 97.527344 60.917969 96.070312 C 71.8125 81.929688 85.046875 70.105469 100.25 60.921875 C 100.546875 60.746094 100.933594 60.839844 101.113281 61.136719 C 101.292969 61.433594 101.195312 61.820312 100.898438 62 C 85.828125 71.101562 72.710938 82.820312 61.914062 96.835938 C 60.796875 98.28125 59.699219 99.765625 58.640625 101.253906 C 58.515625 101.425781 58.324219 101.515625 58.125 101.515625 " fill-opacity="1" fill-rule="nonzero"/><path fill="#000000" d="M 49.089844 126.949219 L 49.175781 130.742188 L 53.121094 129.15625 Z M 47.957031 132.585938 L 47.785156 124.804688 L 56.058594 129.328125 L 47.957031 132.585938 " fill-opacity="1" fill-rule="nonzero"/><path fill="#000000" d="M 353.84375 91.371094 C 353.625 91.371094 353.414062 91.257812 353.296875 91.058594 C 353.125 90.757812 353.222656 90.371094 353.523438 90.199219 L 355.351562 89.136719 C 355.652344 88.960938 356.035156 89.0625 356.210938 89.363281 C 356.382812 89.664062 356.28125 90.050781 355.984375 90.222656 L 354.160156 91.285156 C 354.058594 91.34375 353.949219 91.371094 353.84375 91.371094 " fill-opacity="1" fill-rule="nonzero"/><path fill="#000000" d="M 347.453125 95.085938 C 347.234375 95.085938 347.023438 94.972656 346.90625 94.773438 C 346.734375 94.472656 346.835938 94.089844 347.136719 93.914062 L 348.960938 92.851562 C 349.257812 92.679688 349.644531 92.777344 349.820312 93.078125 C 349.992188 93.382812 349.894531 93.765625 349.59375 93.941406 L 347.769531 95 C 347.667969 95.058594 347.558594 95.085938 347.453125 95.085938 " fill-opacity="1" fill-rule="nonzero"/><path fill="#000000" d="M 350.285156 90.429688 C 350.0625 90.429688 349.847656 90.316406 349.738281 90.109375 L 348.71875 88.296875 C 348.546875 87.992188 348.652344 87.609375 348.957031 87.441406 C 349.257812 87.269531 349.640625 87.378906 349.8125 87.679688 L 350.832031 89.492188 C 351 89.796875 350.894531 90.179688 350.59375 90.351562 C 350.492188 90.402344 350.390625 90.429688 350.285156 90.429688 " fill-opacity="1" fill-rule="nonzero"/><path fill="#000000" d="M 353.851562 96.78125 C 353.632812 96.78125 353.417969 96.664062 353.304688 96.457031 L 352.285156 94.644531 C 352.113281 94.339844 352.222656 93.960938 352.527344 93.789062 C 352.824219 93.617188 353.210938 93.726562 353.378906 94.03125 L 354.398438 95.84375 C 354.570312 96.144531 354.460938 96.527344 354.160156 96.699219 C 354.0625 96.75 353.957031 96.78125 353.851562 96.78125 " fill-opacity="1" fill-rule="nonzero"/><path fill="#000000" d="M 311.917969 322.679688 C 311.699219 322.679688 311.488281 322.566406 311.371094 322.367188 C 311.199219 322.066406 311.296875 321.683594 311.597656 321.507812 L 313.410156 320.453125 C 313.710938 320.277344 314.097656 320.378906 314.269531 320.679688 C 314.445312 320.980469 314.34375 321.363281 314.042969 321.539062 L 312.230469 322.59375 C 312.128906 322.648438 312.023438 322.679688 311.917969 322.679688 " fill-opacity="1" fill-rule="nonzero"/><path fill="#000000" d="M 305.574219 326.367188 C 305.355469 326.367188 305.144531 326.253906 305.03125 326.054688 C 304.855469 325.753906 304.957031 325.371094 305.257812 325.195312 L 307.070312 324.140625 C 307.371094 323.96875 307.753906 324.070312 307.929688 324.367188 C 308.105469 324.667969 308 325.050781 307.699219 325.226562 L 305.890625 326.28125 C 305.789062 326.339844 305.679688 326.367188 305.574219 326.367188 " fill-opacity="1" fill-rule="nonzero"/><path fill="#000000" d="M 308.386719 321.746094 C 308.164062 321.746094 307.953125 321.628906 307.835938 321.425781 L 306.824219 319.625 C 306.652344 319.320312 306.761719 318.9375 307.0625 318.769531 C 307.367188 318.597656 307.75 318.707031 307.917969 319.007812 L 308.929688 320.808594 C 309.101562 321.113281 308.996094 321.496094 308.691406 321.664062 C 308.59375 321.71875 308.488281 321.746094 308.386719 321.746094 " fill-opacity="1" fill-rule="nonzero"/><path fill="#000000" d="M 311.925781 328.046875 C 311.710938 328.046875 311.496094 327.933594 311.378906 327.726562 L 310.367188 325.925781 C 310.199219 325.621094 310.304688 325.242188 310.609375 325.070312 C 310.910156 324.898438 311.292969 325.007812 311.460938 325.308594 L 312.476562 327.109375 C 312.644531 327.414062 312.535156 327.796875 312.234375 327.964844 C 312.136719 328.023438 312.03125 328.046875 311.925781 328.046875 " fill-opacity="1" fill-rule="nonzero"/><path fill="#000000" d="M 333.945312 68.214844 C 333.179688 68.214844 332.457031 68.503906 331.902344 69.035156 C 331.332031 69.582031 331.011719 70.316406 331 71.105469 C 330.984375 71.894531 331.273438 72.640625 331.820312 73.210938 C 332.371094 73.773438 333.101562 74.097656 333.890625 74.113281 C 334.675781 74.128906 335.429688 73.835938 335.992188 73.289062 C 336.5625 72.742188 336.882812 72.007812 336.898438 71.21875 C 336.914062 70.433594 336.617188 69.683594 336.074219 69.117188 C 335.527344 68.546875 334.789062 68.226562 334.003906 68.214844 C 333.984375 68.214844 333.964844 68.214844 333.945312 68.214844 Z M 333.953125 75.371094 C 333.921875 75.371094 333.894531 75.371094 333.867188 75.371094 C 332.742188 75.347656 331.695312 74.890625 330.917969 74.078125 C 330.136719 73.269531 329.71875 72.207031 329.742188 71.082031 C 329.765625 69.957031 330.21875 68.910156 331.03125 68.128906 C 331.820312 67.371094 332.851562 66.957031 333.945312 66.957031 C 333.972656 66.957031 334 66.957031 334.027344 66.957031 C 335.152344 66.976562 336.199219 67.4375 336.980469 68.246094 C 337.757812 69.054688 338.175781 70.121094 338.152344 71.246094 C 338.132812 72.367188 337.675781 73.417969 336.867188 74.195312 C 336.078125 74.953125 335.046875 75.371094 333.953125 75.371094 " fill-opacity="1" fill-rule="nonzero"/><path fill="#000000" d="M 39.703125 164.710938 C 38.96875 164.710938 38.230469 164.984375 37.660156 165.53125 C 37.09375 166.082031 36.769531 166.816406 36.757812 167.601562 C 36.742188 168.390625 37.035156 169.136719 37.582031 169.707031 C 38.707031 170.878906 40.582031 170.914062 41.753906 169.785156 C 42.925781 168.65625 42.960938 166.785156 41.832031 165.613281 C 41.253906 165.011719 40.480469 164.710938 39.703125 164.710938 Z M 39.707031 171.863281 C 38.605469 171.863281 37.5 171.433594 36.675781 170.578125 C 35.894531 169.765625 35.476562 168.703125 35.5 167.578125 C 35.519531 166.457031 35.980469 165.40625 36.789062 164.628906 C 38.460938 163.019531 41.128906 163.070312 42.738281 164.742188 C 44.347656 166.414062 44.296875 169.082031 42.625 170.691406 C 41.808594 171.476562 40.757812 171.863281 39.707031 171.863281 " fill-opacity="1" fill-rule="nonzero"/><path fill="#ffffff" d="M 181.636719 51.71875 C 181.65625 59.402344 175.445312 65.652344 167.757812 65.675781 C 160.070312 65.699219 153.824219 59.484375 153.800781 51.800781 C 153.777344 44.113281 159.992188 37.863281 167.679688 37.839844 C 175.363281 37.820312 181.613281 44.03125 181.636719 51.71875 " fill-opacity="1" fill-rule="nonzero"/><path fill="#000000" d="M 167.71875 66.304688 C 164.414062 66.304688 161.183594 65.171875 158.613281 63.105469 C 158.34375 62.890625 158.300781 62.492188 158.515625 62.222656 C 158.734375 61.953125 159.128906 61.910156 159.402344 62.125 C 161.75 64.011719 164.703125 65.050781 167.71875 65.050781 C 167.730469 65.050781 167.742188 65.050781 167.753906 65.050781 C 175.082031 65.027344 181.027344 59.050781 181.003906 51.722656 C 180.984375 44.410156 175.027344 38.472656 167.71875 38.472656 C 167.703125 38.472656 167.691406 38.472656 167.679688 38.472656 C 166.117188 38.476562 164.589844 38.75 163.140625 39.28125 C 162.8125 39.402344 162.453125 39.234375 162.332031 38.90625 C 162.210938 38.582031 162.378906 38.21875 162.707031 38.101562 C 164.296875 37.519531 165.96875 37.21875 167.675781 37.214844 C 167.691406 37.214844 167.703125 37.214844 167.71875 37.214844 C 175.71875 37.214844 182.238281 43.714844 182.261719 51.71875 C 182.285156 59.738281 175.78125 66.28125 167.757812 66.304688 C 167.746094 66.304688 167.730469 66.304688 167.71875 66.304688 " fill-opacity="1" fill-rule="nonzero"/><path fill="#333333" d="M 161.253906 58.398438 C 160.464844 58.398438 159.824219 57.757812 159.824219 56.96875 L 159.824219 49.925781 C 159.824219 49.136719 160.464844 48.496094 161.253906 48.496094 C 162.042969 48.496094 162.683594 49.136719 162.683594 49.925781 L 162.683594 56.96875 C 162.683594 57.757812 162.042969 58.398438 161.253906 58.398438 " fill-opacity="1" fill-rule="nonzero"/><path fill="#333333" d="M 167.121094 58.402344 C 166.332031 58.402344 165.691406 57.757812 165.691406 56.972656 L 165.691406 46.703125 C 165.691406 45.914062 166.332031 45.273438 167.121094 45.273438 C 167.914062 45.273438 168.554688 45.914062 168.554688 46.703125 L 168.554688 56.972656 C 168.554688 57.757812 167.914062 58.402344 167.121094 58.402344 " fill-opacity="1" fill-rule="nonzero"/><path fill="#333333" d="M 172.917969 58.398438 C 172.128906 58.398438 171.488281 57.757812 171.488281 56.96875 L 171.488281 45.070312 C 171.488281 44.277344 172.128906 43.640625 172.917969 43.640625 C 173.707031 43.640625 174.351562 44.277344 174.351562 45.070312 L 174.351562 56.96875 C 174.351562 57.757812 173.707031 58.398438 172.917969 58.398438 " fill-opacity="1" fill-rule="nonzero"/></svg>